g Tavolo
v 2 0.76 -0.9 0.960784 0.886275 0.682353
v 1.2 0.76 -0.9 0.960784 0.886275 0.682353
v 1.2 0.76 0.9 0.960784 0.886275 0.682353
v 2 0.76 0.9 0.960784 0.886275 0.682353
vn 0 1 0
vt 0 0
vt 0.8 -4.89859e-17
vt 0.8 1.8
vt 1.10218e-16 1.8
f 1/1/1 2/2/1 3/3/1
f 3/3/1 4/4/1 1/1/1
v 2 0.76 -0.9 0.780392 0.517647 0.32549
v 2 0.72 -0.9 0.780392 0.517647 0.32549
v 1.2 0.72 -0.9 0.780392 0.517647 0.32549
v 1.2 0.76 -0.9 0.780392 0.517647 0.32549
v 2 0.76 0.9 0.780392 0.517647 0.32549
v 2 0.72 0.9 0.780392 0.517647 0.32549
v 1.2 0.76 0.9 0.780392 0.517647 0.32549
v 1.2 0.72 0.9 0.780392 0.517647 0.32549
vn -6.12323e-17 0 -1
vn 1 0 -6.12323e-17
vn 6.12323e-17 0 1
vn -1 0 6.12323e-17
vt -0.4 0
vt -0.4 -0.04
vt 0.4 -0.04
vt 0.4 0
vt -0.9 0
vt -0.9 -0.04
vt 0.9 -0.04
vt 0.9 0
vt -0.4 0
vt -0.4 -0.04
vt 0.4 -0.04
vt 0.4 0
vt -0.9 0
vt -0.9 -0.04
vt 0.9 -0.04
vt 0.9 0
f 5/5/2 6/6/2 7/7/2
f 7/7/2 8/8/2 5/5/2
f 9/9/3 10/10/3 6/11/3
f 6/11/3 5/12/3 9/9/3
f 11/13/4 12/14/4 10/15/4
f 10/15/4 9/16/4 11/13/4
f 8/17/5 7/18/5 12/19/5
f 12/19/5 11/20/5 8/17/5
v 1.95 0 0.825 0.803922 0.803922 0.803922
v 1.95 0.72 0.825 0.803922 0.803922 0.803922
v 1.975 0.72 0.825 0.803922 0.803922 0.803922
v 1.975 0 0.825 0.803922 0.803922 0.803922
v 1.975 0.72 0.875 0.803922 0.803922 0.803922
v 1.975 0 0.875 0.803922 0.803922 0.803922
v 1.9375 0.72 0.875 0.803922 0.803922 0.803922
v 1.925 0 0.875 0.803922 0.803922 0.803922
v 1.925 0.72 0.875 0.803922 0.803922 0.803922
v 1.95 0 0.85 0.803922 0.803922 0.803922
v 1.925 0 0.85 0.803922 0.803922 0.803922
v 1.925 0.72 0.85 0.803922 0.803922 0.803922
v 1.9375 0.72 0.85 0.803922 0.803922 0.803922
v 1.95 0.72 0.85 0.803922 0.803922 0.803922
v 2 0.72 -0.425 0.803922 0.803922 0.803922
v 2 0.72 0.425 0.803922 0.803922 0.803922
v 1.975 0.72 0.025 0.803922 0.803922 0.803922
v 1.95 0.72 0.025 0.803922 0.803922 0.803922
v 1.95 0.72 -0.025 0.803922 0.803922 0.803922
v 1.975 0.72 -0.025 0.803922 0.803922 0.803922
v 1.25 0.72 -0.025 0.803922 0.803922 0.803922
v 1.225 0.72 -0.025 0.803922 0.803922 0.803922
v 1.25 0.72 0.025 0.803922 0.803922 0.803922
v 1.2 0.72 0.425 0.803922 0.803922 0.803922
v 1.225 0.72 0.025 0.803922 0.803922 0.803922
v 1.2 0.72 -0.425 0.803922 0.803922 0.803922
v 2 0.72 -0.8875 0.803922 0.803922 0.803922
v 1.9375 0.72 -0.9 0.803922 0.803922 0.803922
v 1.6 0.72 -0.9 0.803922 0.803922 0.803922
v 1.2625 0.72 -0.9 0.803922 0.803922 0.803922
v 1.2 0.72 -0.8875 0.803922 0.803922 0.803922
v 1.2 0.72 -0.9 0.803922 0.803922 0.803922
v 1.9375 0.72 0.9 0.803922 0.803922 0.803922
v 1.6 0.72 0.9 0.803922 0.803922 0.803922
v 2 0.72 0.9 0.803922 0.803922 0.803922
v 1.275 0.72 -0.875 0.803922 0.803922 0.803922
v 1.275 0.72 -0.85 0.803922 0.803922 0.803922
v 1.2625 0.72 -0.85 0.803922 0.803922 0.803922
v 1.225 0.72 -0.825 0.803922 0.803922 0.803922
v 1.225 0.72 -0.875 0.803922 0.803922 0.803922
v 1.2625 0.72 -0.875 0.803922 0.803922 0.803922
v 1.25 0.72 -0.825 0.803922 0.803922 0.803922
v 1.275 0.72 0.85 0.803922 0.803922 0.803922
v 1.275 0.72 0.875 0.803922 0.803922 0.803922
v 1.2625 0.72 0.9 0.803922 0.803922 0.803922
v 1.2625 0.72 0.875 0.803922 0.803922 0.803922
v 1.2 0.72 0.9 0.803922 0.803922 0.803922
v 1.225 0.72 0.875 0.803922 0.803922 0.803922
v 1.225 0.72 0.825 0.803922 0.803922 0.803922
v 1.25 0.72 0.825 0.803922 0.803922 0.803922
v 1.2625 0.72 0.85 0.803922 0.803922 0.803922
v 1.25 0.72 0.85 0.803922 0.803922 0.803922
v 1.925 0.72 -0.85 0.803922 0.803922 0.803922
v 1.925 0.72 -0.875 0.803922 0.803922 0.803922
v 1.9375 0.72 -0.875 0.803922 0.803922 0.803922
v 1.975 0.72 -0.875 0.803922 0.803922 0.803922
v 1.975 0.72 -0.825 0.803922 0.803922 0.803922
v 1.95 0.72 -0.825 0.803922 0.803922 0.803922
v 1.9375 0.72 -0.85 0.803922 0.803922 0.803922
v 1.95 0.72 -0.85 0.803922 0.803922 0.803922
v 1.25 0.72 -0.85 0.803922 0.803922 0.803922
v 2 0.72 -0.9 0.803922 0.803922 0.803922
v 1.9375 0.72 0.425 0.803922 0.803922 0.803922
v 1.9375 0.72 -0.425 0.803922 0.803922 0.803922
v 1.6 0.72 0.425 0.803922 0.803922 0.803922
v 1.6 0.72 -0.425 0.803922 0.803922 0.803922
v 1.2625 0.72 0.425 0.803922 0.803922 0.803922
v 1.2625 0.72 -0.425 0.803922 0.803922 0.803922
v 1.9375 0.72 -0.8875 0.803922 0.803922 0.803922
v 1.6 0.72 -0.8875 0.803922 0.803922 0.803922
v 1.2625 0.72 -0.8875 0.803922 0.803922 0.803922
v 1.975 0 -0.025 0.803922 0.803922 0.803922
v 1.975 0 0.025 0.803922 0.803922 0.803922
v 1.95 0 0.025 0.803922 0.803922 0.803922
v 1.95 0 -0.025 0.803922 0.803922 0.803922
v 1.975 0 -0.875 0.803922 0.803922 0.803922
v 1.975 0 -0.825 0.803922 0.803922 0.803922
v 1.925 0 -0.875 0.803922 0.803922 0.803922
v 1.95 0 -0.85 0.803922 0.803922 0.803922
v 1.95 0 -0.825 0.803922 0.803922 0.803922
v 1.925 0 -0.85 0.803922 0.803922 0.803922
v 1.225 0 -0.825 0.803922 0.803922 0.803922
v 1.225 0 -0.875 0.803922 0.803922 0.803922
v 1.25 0 -0.85 0.803922 0.803922 0.803922
v 1.275 0 -0.875 0.803922 0.803922 0.803922
v 1.275 0 -0.85 0.803922 0.803922 0.803922
v 1.25 0 -0.825 0.803922 0.803922 0.803922
v 1.25 0 0.825 0.803922 0.803922 0.803922
v 1.25 0 0.85 0.803922 0.803922 0.803922
v 1.275 0 0.875 0.803922 0.803922 0.803922
v 1.225 0 0.875 0.803922 0.803922 0.803922
v 1.225 0 0.825 0.803922 0.803922 0.803922
v 1.275 0 0.85 0.803922 0.803922 0.803922
v 1.225 0 0.025 0.803922 0.803922 0.803922
v 1.225 0 -0.025 0.803922 0.803922 0.803922
v 1.25 0 -0.025 0.803922 0.803922 0.803922
v 1.25 0 0.025 0.803922 0.803922 0.803922
vn -6.12323e-17 -0 -1
vn 1 -0 -6.12323e-17
vn 6.12323e-17 -0 1
vn -0 -1 -0
vn -1 -0 6.12323e-17
vn -6.12323e-17 0 -1
vn -0 -1 -0
vn 1 -0 -6.12323e-17
vn 6.12323e-17 -0 1
vn -1 0 6.12323e-17
vn -6.12323e-17 -0 -1
vn 1 0 -6.12323e-17
vn -0 -1 -0
vn 6.12323e-17 0 1
vn -1 0 6.12323e-17
vn -6.12323e-17 0 -1
vn -0 -1 -0
vn 1 -0 -6.12323e-17
vn 6.12323e-17 0 1
vn -0 -1 -0
vn -6.12323e-17 0 -1
vn 1 0 -6.12323e-17
vn 6.12323e-17 0 1
vn -1 0 6.12323e-17
vn -6.12323e-17 0 -1
vn -0 -1 -0
vn 1 0 -6.12323e-17
vn 6.12323e-17 0 1
vt -0.0125 0
vt -0.0125 0.72
vt 0.0125 0.72
vt 0.0125 0
vt -0.025 0
vt -0.025 0.72
vt 0.025 0.72
vt 0.025 0
vt -0.025 0
vt -0.025 0.72
vt 0.0125 0.72
vt 0.025 0
vt 0.025 0.72
vt 0.025 1.725
vt 0.025 1.775
vt 0.05 1.75
vt 0.075 1.775
vt 0.075 1.75
vt 0.05 1.725
vt -0.0125 0
vt -0.0125 0.72
vt 0.0125 0.72
vt 0.0125 0
vt -0.0125 0
vt 0.0125 0
vt 0 0.72
vt 0.0125 0.72
vt -0.0125 0.72
vt 0.0125 0
vt 0.0125 0.72
vt -0.0125 0.72
vt -0.0125 0
vt 0 0.475
vt 0 1.325
vt 0.025 0.925
vt 0.0625 1.325
vt 0.05 0.925
vt 0.0625 0.475
vt 0.05 0.875
vt 0.025 0.875
vt 0.4 1.325
vt 0.4 0.475
vt 0.7375 1.325
vt 0.7375 0.475
vt 0.75 0.875
vt 0.775 0.875
vt 0.75 0.925
vt 0.8 1.325
vt 0.775 0.925
vt 0.8 0.475
vt 0 0.0125
vt 0.0625 0.0125
vt 0.0625 -4.89859e-17
vt 0.4 0.0125
vt 0.4 -4.89859e-17
vt 0.7375 0.0125
vt 0.7375 -4.89859e-17
vt 0.8 0.0125
vt 0.8 -4.89859e-17
vt 0.0625 1.8
vt 0.4 1.8
vt 0.075 1.775
vt 0.075 1.75
vt 0.0625 1.75
vt 0.05 1.725
vt 0.025 1.725
vt 0 1.8
vt 0.025 1.775
vt 0.0625 1.775
vt 0.725 0.025
vt 0.725 0.05
vt 0.7375 0.05
vt 0.775 0.075
vt 0.775 0.025
vt 0.7375 0.025
vt 0.75 0.075
vt 0.725 1.75
vt 0.725 1.775
vt 0.7375 1.8
vt 0.7375 1.775
vt 0.8 1.8
vt 0.775 1.775
vt 0.775 1.725
vt 0.75 1.725
vt 0.7375 1.75
vt 0.75 1.75
vt 0.075 0.05
vt 0.075 0.025
vt 0.0625 0.025
vt 0.025 0.025
vt 0.025 0.075
vt 0.05 0.075
vt 0.0625 0.05
vt 0.05 0.05
vt 0.75 0.05
vt 0.05 1.75
vt 0 -4.89859e-17
vt -0.025 0
vt -0.025 0.72
vt 0.025 0.72
vt 0.025 0
vt 0.05 0.925
vt 0.05 0.875
vt 0.025 0.875
vt 0.025 0.925
vt -0.0125 0
vt -0.0125 0.72
vt 0.0125 0.72
vt 0.0125 0
vt 0.025 0
vt 0.025 0.72
vt -0.025 0.72
vt -0.025 0
vt -0.0125 0
vt -0.0125 0.72
vt 0.0125 0.72
vt 0.0125 0
vt 0.025 0
vt 0.025 0.72
vt -0.025 0.72
vt -0.025 0
vt 0.075 0.025
vt 0.025 0.025
vt 0.05 0.05
vt 0.025 0.075
vt 0.05 0.075
vt 0.075 0.05
vt 0.0125 0
vt 0.0125 0.72
vt -0.0125 0.72
vt -0.0125 0
vt 0.0125 0
vt 0.0125 0.72
vt -0.0125 0.72
vt -0.0125 0
vt -0.0125 0
vt 0.0125 0
vt 0 0.72
vt 0.0125 0.72
vt -0.0125 0.72
vt 0.0125 0
vt 0.0125 0.72
vt -0.0125 0.72
vt -0.0125 0
vt -0.025 0
vt 0.025 0
vt 0.0125 0.72
vt 0.025 0.72
vt -0.025 0.72
vt -0.025 0
vt -0.025 0.72
vt 0.025 0.72
vt 0.025 0
vt 0.775 0.075
vt 0.775 0.025
vt 0.75 0.05
vt 0.725 0.025
vt 0.725 0.05
vt 0.75 0.075
vt -0.025 0
vt -0.025 0.72
vt 0.0125 0.72
vt 0.025 0
vt 0.025 0.72
vt -0.0125 0
vt -0.0125 0.72
vt 0.0125 0.72
vt 0.0125 0
vt -0.0125 0
vt 0.0125 0
vt -2.22045e-16 0.72
vt 0.0125 0.72
vt -0.0125 0.72
vt 0.0125 0
vt 0.0125 0.72
vt -0.0125 0.72
vt -0.0125 0
vt -0.0125 0
vt -0.0125 0.72
vt 0.0125 0.72
vt 0.0125 0
vt 0.0125 0
vt 0.0125 0.72
vt -0.0125 0.72
vt -0.0125 0
vt 0.725 1.775
vt 0.775 1.775
vt 0.75 1.75
vt 0.775 1.725
vt 0.75 1.725
vt 0.725 1.75
vt -0.0125 0
vt 0.0125 0
vt 2.22045e-16 0.72
vt 0.0125 0.72
vt -0.0125 0.72
vt 0.0125 0
vt 0.0125 0.72
vt -0.0125 0.72
vt -0.0125 0
vt -0.025 0
vt 0.025 0
vt 0.0125 0.72
vt 0.025 0.72
vt -0.025 0.72
vt 0.025 0
vt 0.025 0.72
vt -0.025 0.72
vt -0.025 0
vt 0.0125 0
vt 0.0125 0.72
vt -0.0125 0.72
vt -0.0125 0
vt 0.025 0
vt 0.025 0.72
vt -0.025 0.72
vt -0.025 0
vt 0.75 0.875
vt 0.75 0.925
vt 0.775 0.925
vt 0.775 0.875
vt 0.0125 0
vt 0.0125 0.72
vt -0.0125 0.72
vt -0.0125 0
vt 0.025 0
vt 0.025 0.72
vt -0.025 0.72
vt -0.025 0
vt 0.0125 0
vt 0.0125 0.72
vt -0.0125 0.72
vt -0.0125 0
f 13/21/6 14/22/6 15/23/6
f 15/23/6 16/24/6 13/21/6
f 16/25/7 15/26/7 17/27/7
f 17/27/7 18/28/7 16/25/7
f 18/29/8 17/30/8 19/31/8
f 19/31/8 20/32/8 18/29/8
f 19/31/8 21/33/8 20/32/8
f 16/34/9 18/35/9 22/36/9
f 20/37/9 23/38/9 22/36/9
f 22/36/9 18/35/9 20/37/9
f 22/36/9 13/39/9 16/34/9
f 20/40/10 21/41/10 24/42/10
f 24/42/10 23/43/10 20/40/10
f 22/44/11 23/45/11 25/46/11
f 23/45/11 24/47/11 25/46/11
f 25/46/11 26/48/11 22/44/11
f 22/49/10 26/50/10 14/51/10
f 14/51/10 13/52/10 22/49/10
f 27/53/12 28/54/12 29/55/12
f 75/56/12 30/57/12 29/55/12
f 29/55/12 28/54/12 75/56/12
f 75/56/12 76/58/12 31/59/12
f 31/59/12 30/57/12 75/56/12
f 76/58/12 27/53/12 32/60/12
f 32/60/12 31/59/12 76/58/12
f 75/56/12 77/61/12 78/62/12
f 77/61/12 79/63/12 80/64/12
f 80/64/12 33/65/12 34/66/12
f 80/64/12 79/63/12 35/67/12
f 35/67/12 33/65/12 80/64/12
f 79/63/12 36/68/12 37/69/12
f 37/69/12 35/67/12 79/63/12
f 36/68/12 38/70/12 34/66/12
f 34/66/12 37/69/12 36/68/12
f 39/71/12 81/72/12 40/73/12
f 81/72/12 82/74/12 41/75/12
f 82/74/12 83/76/12 42/77/12
f 83/76/12 43/78/12 44/79/12
f 45/80/12 46/81/12 21/82/12
f 46/81/12 77/61/12 24/83/12
f 24/83/12 21/82/12 46/81/12
f 75/56/12 25/84/12 24/83/12
f 24/83/12 77/61/12 75/56/12
f 25/84/12 75/56/12 14/85/12
f 75/56/12 28/54/12 15/86/12
f 47/87/12 17/88/12 15/86/12
f 45/80/12 19/89/12 17/88/12
f 15/86/12 14/85/12 75/56/12
f 17/88/12 47/87/12 45/80/12
f 15/86/12 28/54/12 47/87/12
f 83/76/12 82/74/12 48/90/12
f 82/74/12 78/62/12 49/91/12
f 49/91/12 48/90/12 82/74/12
f 80/64/12 50/92/12 49/91/12
f 49/91/12 78/62/12 80/64/12
f 80/64/12 38/70/12 51/93/12
f 43/78/12 52/94/12 51/93/12
f 51/93/12 38/70/12 43/78/12
f 83/76/12 53/95/12 52/94/12
f 50/92/12 80/64/12 54/96/12
f 52/94/12 43/78/12 83/76/12
f 51/93/12 54/96/12 80/64/12
f 79/63/12 77/61/12 55/97/12
f 46/81/12 56/98/12 55/97/12
f 55/97/12 77/61/12 46/81/12
f 57/99/12 58/100/12 56/98/12
f 56/98/12 46/81/12 57/99/12
f 57/99/12 59/101/12 60/102/12
f 59/101/12 36/68/12 61/103/12
f 61/103/12 60/102/12 59/101/12
f 79/63/12 62/104/12 61/103/12
f 61/103/12 36/68/12 79/63/12
f 63/105/12 64/106/12 62/104/12
f 62/104/12 79/63/12 63/105/12
f 76/58/12 78/62/12 65/107/12
f 82/74/12 66/108/12 65/107/12
f 65/107/12 78/62/12 82/74/12
f 81/72/12 67/109/12 66/108/12
f 66/108/12 82/74/12 81/72/12
f 81/72/12 39/71/12 68/110/12
f 39/71/12 27/53/12 69/111/12
f 76/58/12 70/112/12 69/111/12
f 71/113/12 72/114/12 70/112/12
f 69/111/12 68/110/12 39/71/12
f 70/112/12 76/58/12 71/113/12
f 69/111/12 27/53/12 76/58/12
f 68/110/12 67/109/12 81/72/12
f 65/107/12 71/113/12 76/58/12
f 60/102/12 58/100/12 57/99/12
f 55/97/12 63/105/12 79/63/12
f 54/96/12 73/115/12 50/92/12
f 48/90/12 53/95/12 83/76/12
f 14/85/12 26/116/12 25/84/12
f 21/82/12 19/89/12 45/80/12
f 44/79/12 42/77/12 83/76/12
f 42/77/12 41/75/12 82/74/12
f 41/75/12 40/73/12 81/72/12
f 40/73/12 74/117/12 39/71/12
f 34/66/12 38/70/12 80/64/12
f 80/64/12 78/62/12 77/61/12
f 78/62/12 76/58/12 75/56/12
f 29/55/12 32/60/12 27/53/12
f 84/118/13 32/119/13 29/120/13
f 29/120/13 85/121/13 84/118/13
f 86/122/12 87/123/12 84/124/12
f 84/124/12 85/125/12 86/122/12
f 85/126/14 29/127/14 30/128/14
f 30/128/14 86/129/14 85/126/14
f 86/130/15 30/131/15 31/132/15
f 31/132/15 87/133/15 86/130/15
f 87/134/16 31/135/16 32/136/16
f 32/136/16 84/137/16 87/134/16
f 88/138/17 68/139/17 69/140/17
f 69/140/17 89/141/17 88/138/17
f 90/142/18 88/143/18 91/144/18
f 89/145/18 92/146/18 91/144/18
f 91/144/18 88/143/18 89/145/18
f 91/144/18 93/147/18 90/142/18
f 89/148/19 69/149/19 70/150/19
f 70/150/19 92/151/19 89/148/19
f 92/152/20 70/153/20 72/154/20
f 72/154/20 91/155/20 92/152/20
f 93/156/19 91/157/19 71/158/19
f 91/157/19 72/159/19 71/158/19
f 71/158/19 65/160/19 93/156/19
f 93/161/20 65/162/20 66/163/20
f 66/163/20 90/164/20 93/161/20
f 88/165/21 90/166/21 67/167/21
f 90/166/21 66/168/21 67/167/21
f 67/167/21 68/169/21 88/165/21
f 94/170/20 51/171/20 52/172/20
f 52/172/20 95/173/20 94/170/20
f 94/174/22 95/175/22 96/176/22
f 97/177/22 98/178/22 96/176/22
f 96/176/22 95/175/22 97/177/22
f 96/176/22 99/179/22 94/174/22
f 95/180/21 52/181/21 53/182/21
f 53/182/21 97/183/21 95/180/21
f 53/182/21 48/184/21 97/183/21
f 97/185/23 48/186/23 49/187/23
f 49/187/23 98/188/23 97/185/23
f 96/189/24 98/190/24 50/191/24
f 98/190/24 49/192/24 50/191/24
f 50/191/24 73/193/24 96/189/24
f 96/194/23 73/195/23 54/196/23
f 54/196/23 99/197/23 96/194/23
f 99/198/24 54/199/24 51/200/24
f 51/200/24 94/201/24 99/198/24
f 100/202/23 62/203/23 64/204/23
f 64/204/23 101/205/23 100/202/23
f 102/206/25 103/207/25 101/208/25
f 104/209/25 100/210/25 101/208/25
f 101/208/25 103/207/25 104/209/25
f 101/208/25 105/211/25 102/206/25
f 105/212/26 101/213/26 63/214/26
f 101/213/26 64/215/26 63/214/26
f 63/214/26 55/216/26 105/212/26
f 105/217/27 55/218/27 56/219/27
f 56/219/27 102/220/27 105/217/27
f 103/221/28 102/222/28 58/223/28
f 102/222/28 56/224/28 58/223/28
f 58/223/28 60/225/28 103/221/28
f 103/226/29 60/227/29 61/228/29
f 61/228/29 104/229/29 103/226/29
f 104/230/30 61/231/30 62/232/30
f 62/232/30 100/233/30 104/230/30
f 106/234/29 37/235/29 34/236/29
f 34/236/29 107/237/29 106/234/29
f 108/238/31 109/239/31 106/240/31
f 106/240/31 107/241/31 108/238/31
f 107/242/30 34/243/30 33/244/30
f 33/244/30 108/245/30 107/242/30
f 108/246/32 33/247/32 35/248/32
f 35/248/32 109/249/32 108/246/32
f 109/250/33 35/251/33 37/252/33
f 37/252/33 106/253/33 109/250/33
